# Generator placement prototype
mtllib generator.mtl
o Generator
usemtl Generator
v -1.600000 0.000000 1.000000
v 1.600000 0.000000 1.000000
v 1.600000 0.000000 -1.000000
v -1.600000 0.000000 -1.000000
v -1.600000 0.300000 1.000000
v 1.600000 0.300000 1.000000
v 1.600000 0.300000 -1.000000
v -1.600000 0.300000 -1.000000
vn 0 -1 0
vt 0.300000 0.5
f 1/1/1 4/1/1 3/1/1
f 1/1/1 3/1/1 2/1/1
vn 0 1 0
vt 0.300000 0.5
f 5/2/2 6/2/2 7/2/2
f 5/2/2 7/2/2 8/2/2
vn 0 0 1
vt 0.300000 0.5
f 1/3/3 2/3/3 6/3/3
f 1/3/3 6/3/3 5/3/3
vn 1 0 0
vt 0.300000 0.5
f 2/4/4 3/4/4 7/4/4
f 2/4/4 7/4/4 6/4/4
vn 0 0 -1
vt 0.300000 0.5
f 3/5/5 4/5/5 8/5/5
f 3/5/5 8/5/5 7/5/5
vn -1 0 0
vt 0.300000 0.5
f 4/6/6 1/6/6 5/6/6
f 4/6/6 5/6/6 8/6/6
v -1.400000 0.300000 0.800000
v 1.400000 0.300000 0.800000
v 1.400000 0.300000 -0.800000
v -1.400000 0.300000 -0.800000
v -1.400000 2.100000 0.800000
v 1.400000 2.100000 0.800000
v 1.400000 2.100000 -0.800000
v -1.400000 2.100000 -0.800000
vn 0 -1 0
vt 0.100000 0.5
f 9/7/7 12/7/7 11/7/7
f 9/7/7 11/7/7 10/7/7
vn 0 1 0
vt 0.100000 0.5
f 13/8/8 14/8/8 15/8/8
f 13/8/8 15/8/8 16/8/8
vn 0 0 1
vt 0.100000 0.5
f 9/9/9 10/9/9 14/9/9
f 9/9/9 14/9/9 13/9/9
vn 1 0 0
vt 0.100000 0.5
f 10/10/10 11/10/10 15/10/10
f 10/10/10 15/10/10 14/10/10
vn 0 0 -1
vt 0.100000 0.5
f 11/11/11 12/11/11 16/11/11
f 11/11/11 16/11/11 15/11/11
vn -1 0 0
vt 0.100000 0.5
f 12/12/12 9/12/12 13/12/12
f 12/12/12 13/12/12 16/12/12
v -1.250000 2.100000 0.725000
v 1.250000 2.100000 0.725000
v 1.250000 2.100000 -0.725000
v -1.250000 2.100000 -0.725000
v -1.250000 2.400000 0.725000
v 1.250000 2.400000 0.725000
v 1.250000 2.400000 -0.725000
v -1.250000 2.400000 -0.725000
vn 0 -1 0
vt 0.500000 0.5
f 17/13/13 20/13/13 19/13/13
f 17/13/13 19/13/13 18/13/13
vn 0 1 0
vt 0.500000 0.5
f 21/14/14 22/14/14 23/14/14
f 21/14/14 23/14/14 24/14/14
vn 0 0 1
vt 0.500000 0.5
f 17/15/15 18/15/15 22/15/15
f 17/15/15 22/15/15 21/15/15
vn 1 0 0
vt 0.500000 0.5
f 18/16/16 19/16/16 23/16/16
f 18/16/16 23/16/16 22/16/16
vn 0 0 -1
vt 0.500000 0.5
f 19/17/17 20/17/17 24/17/17
f 19/17/17 24/17/17 23/17/17
vn -1 0 0
vt 0.500000 0.5
f 20/18/18 17/18/18 21/18/18
f 20/18/18 21/18/18 24/18/18
v 0.725000 2.200000 -0.325000
v 0.975000 2.200000 -0.325000
v 0.975000 2.200000 -0.575000
v 0.725000 2.200000 -0.575000
v 0.725000 2.800000 -0.325000
v 0.975000 2.800000 -0.325000
v 0.975000 2.800000 -0.575000
v 0.725000 2.800000 -0.575000
vn 0 -1 0
vt 0.300000 0.5
f 25/19/19 28/19/19 27/19/19
f 25/19/19 27/19/19 26/19/19
vn 0 1 0
vt 0.300000 0.5
f 29/20/20 30/20/20 31/20/20
f 29/20/20 31/20/20 32/20/20
vn 0 0 1
vt 0.300000 0.5
f 25/21/21 26/21/21 30/21/21
f 25/21/21 30/21/21 29/21/21
vn 1 0 0
vt 0.300000 0.5
f 26/22/22 27/22/22 31/22/22
f 26/22/22 31/22/22 30/22/22
vn 0 0 -1
vt 0.300000 0.5
f 27/23/23 28/23/23 32/23/23
f 27/23/23 32/23/23 31/23/23
vn -1 0 0
vt 0.300000 0.5
f 28/24/24 25/24/24 29/24/24
f 28/24/24 29/24/24 32/24/24
v -1.175000 0.975000 0.880000
v -0.525000 0.975000 0.880000
v -0.525000 0.975000 0.780000
v -1.175000 0.975000 0.780000
v -1.175000 1.825000 0.880000
v -0.525000 1.825000 0.880000
v -0.525000 1.825000 0.780000
v -1.175000 1.825000 0.780000
vn 0 -1 0
vt 0.300000 0.5
f 33/25/25 36/25/25 35/25/25
f 33/25/25 35/25/25 34/25/25
vn 0 1 0
vt 0.300000 0.5
f 37/26/26 38/26/26 39/26/26
f 37/26/26 39/26/26 40/26/26
vn 0 0 1
vt 0.300000 0.5
f 33/27/27 34/27/27 38/27/27
f 33/27/27 38/27/27 37/27/27
vn 1 0 0
vt 0.300000 0.5
f 34/28/28 35/28/28 39/28/28
f 34/28/28 39/28/28 38/28/28
vn 0 0 -1
vt 0.300000 0.5
f 35/29/29 36/29/29 40/29/29
f 35/29/29 40/29/29 39/29/29
vn -1 0 0
vt 0.300000 0.5
f 36/30/30 33/30/30 37/30/30
f 36/30/30 37/30/30 40/30/30
v -1.050000 1.490000 0.940000
v -0.650000 1.490000 0.940000
v -0.650000 1.490000 0.860000
v -1.050000 1.490000 0.860000
v -1.050000 1.710000 0.940000
v -0.650000 1.710000 0.940000
v -0.650000 1.710000 0.860000
v -1.050000 1.710000 0.860000
vn 0 -1 0
vt 0.900000 0.5
f 41/31/31 44/31/31 43/31/31
f 41/31/31 43/31/31 42/31/31
vn 0 1 0
vt 0.900000 0.5
f 45/32/32 46/32/32 47/32/32
f 45/32/32 47/32/32 48/32/32
vn 0 0 1
vt 0.900000 0.5
f 41/33/33 42/33/33 46/33/33
f 41/33/33 46/33/33 45/33/33
vn 1 0 0
vt 0.900000 0.5
f 42/34/34 43/34/34 47/34/34
f 42/34/34 47/34/34 46/34/34
vn 0 0 -1
vt 0.900000 0.5
f 43/35/35 44/35/35 48/35/35
f 43/35/35 48/35/35 47/35/35
vn -1 0 0
vt 0.900000 0.5
f 44/36/36 41/36/36 45/36/36
f 44/36/36 45/36/36 48/36/36
v -0.935000 1.135000 0.940000
v -0.765000 1.135000 0.940000
v -0.765000 1.135000 0.860000
v -0.935000 1.135000 0.860000
v -0.935000 1.305000 0.940000
v -0.765000 1.305000 0.940000
v -0.765000 1.305000 0.860000
v -0.935000 1.305000 0.860000
vn 0 -1 0
vt 0.700000 0.5
f 49/37/37 52/37/37 51/37/37
f 49/37/37 51/37/37 50/37/37
vn 0 1 0
vt 0.700000 0.5
f 53/38/38 54/38/38 55/38/38
f 53/38/38 55/38/38 56/38/38
vn 0 0 1
vt 0.700000 0.5
f 49/39/39 50/39/39 54/39/39
f 49/39/39 54/39/39 53/39/39
vn 1 0 0
vt 0.700000 0.5
f 50/40/40 51/40/40 55/40/40
f 50/40/40 55/40/40 54/40/40
vn 0 0 -1
vt 0.700000 0.5
f 51/41/41 52/41/41 56/41/41
f 51/41/41 56/41/41 55/41/41
vn -1 0 0
vt 0.700000 0.5
f 52/42/42 49/42/42 53/42/42
f 52/42/42 53/42/42 56/42/42
v -0.125000 0.640000 0.850000
v 1.125000 0.640000 0.850000
v 1.125000 0.640000 0.770000
v -0.125000 0.640000 0.770000
v -0.125000 0.720000 0.850000
v 1.125000 0.720000 0.850000
v 1.125000 0.720000 0.770000
v -0.125000 0.720000 0.770000
vn 0 -1 0
vt 0.300000 0.5
f 57/43/43 60/43/43 59/43/43
f 57/43/43 59/43/43 58/43/43
vn 0 1 0
vt 0.300000 0.5
f 61/44/44 62/44/44 63/44/44
f 61/44/44 63/44/44 64/44/44
vn 0 0 1
vt 0.300000 0.5
f 57/45/45 58/45/45 62/45/45
f 57/45/45 62/45/45 61/45/45
vn 1 0 0
vt 0.300000 0.5
f 58/46/46 59/46/46 63/46/46
f 58/46/46 63/46/46 62/46/46
vn 0 0 -1
vt 0.300000 0.5
f 59/47/47 60/47/47 64/47/47
f 59/47/47 64/47/47 63/47/47
vn -1 0 0
vt 0.300000 0.5
f 60/48/48 57/48/48 61/48/48
f 60/48/48 61/48/48 64/48/48
v -0.125000 0.840000 0.850000
v 1.125000 0.840000 0.850000
v 1.125000 0.840000 0.770000
v -0.125000 0.840000 0.770000
v -0.125000 0.920000 0.850000
v 1.125000 0.920000 0.850000
v 1.125000 0.920000 0.770000
v -0.125000 0.920000 0.770000
vn 0 -1 0
vt 0.300000 0.5
f 65/49/49 68/49/49 67/49/49
f 65/49/49 67/49/49 66/49/49
vn 0 1 0
vt 0.300000 0.5
f 69/50/50 70/50/50 71/50/50
f 69/50/50 71/50/50 72/50/50
vn 0 0 1
vt 0.300000 0.5
f 65/51/51 66/51/51 70/51/51
f 65/51/51 70/51/51 69/51/51
vn 1 0 0
vt 0.300000 0.5
f 66/52/52 67/52/52 71/52/52
f 66/52/52 71/52/52 70/52/52
vn 0 0 -1
vt 0.300000 0.5
f 67/53/53 68/53/53 72/53/53
f 67/53/53 72/53/53 71/53/53
vn -1 0 0
vt 0.300000 0.5
f 68/54/54 65/54/54 69/54/54
f 68/54/54 69/54/54 72/54/54
v -0.125000 1.040000 0.850000
v 1.125000 1.040000 0.850000
v 1.125000 1.040000 0.770000
v -0.125000 1.040000 0.770000
v -0.125000 1.120000 0.850000
v 1.125000 1.120000 0.850000
v 1.125000 1.120000 0.770000
v -0.125000 1.120000 0.770000
vn 0 -1 0
vt 0.300000 0.5
f 73/55/55 76/55/55 75/55/55
f 73/55/55 75/55/55 74/55/55
vn 0 1 0
vt 0.300000 0.5
f 77/56/56 78/56/56 79/56/56
f 77/56/56 79/56/56 80/56/56
vn 0 0 1
vt 0.300000 0.5
f 73/57/57 74/57/57 78/57/57
f 73/57/57 78/57/57 77/57/57
vn 1 0 0
vt 0.300000 0.5
f 74/58/58 75/58/58 79/58/58
f 74/58/58 79/58/58 78/58/58
vn 0 0 -1
vt 0.300000 0.5
f 75/59/59 76/59/59 80/59/59
f 75/59/59 80/59/59 79/59/59
vn -1 0 0
vt 0.300000 0.5
f 76/60/60 73/60/60 77/60/60
f 76/60/60 77/60/60 80/60/60
v -0.125000 1.240000 0.850000
v 1.125000 1.240000 0.850000
v 1.125000 1.240000 0.770000
v -0.125000 1.240000 0.770000
v -0.125000 1.320000 0.850000
v 1.125000 1.320000 0.850000
v 1.125000 1.320000 0.770000
v -0.125000 1.320000 0.770000
vn 0 -1 0
vt 0.300000 0.5
f 81/61/61 84/61/61 83/61/61
f 81/61/61 83/61/61 82/61/61
vn 0 1 0
vt 0.300000 0.5
f 85/62/62 86/62/62 87/62/62
f 85/62/62 87/62/62 88/62/62
vn 0 0 1
vt 0.300000 0.5
f 81/63/63 82/63/63 86/63/63
f 81/63/63 86/63/63 85/63/63
vn 1 0 0
vt 0.300000 0.5
f 82/64/64 83/64/64 87/64/64
f 82/64/64 87/64/64 86/64/64
vn 0 0 -1
vt 0.300000 0.5
f 83/65/65 84/65/65 88/65/65
f 83/65/65 88/65/65 87/65/65
vn -1 0 0
vt 0.300000 0.5
f 84/66/66 81/66/66 85/66/66
f 84/66/66 85/66/66 88/66/66
v -0.125000 1.440000 0.850000
v 1.125000 1.440000 0.850000
v 1.125000 1.440000 0.770000
v -0.125000 1.440000 0.770000
v -0.125000 1.520000 0.850000
v 1.125000 1.520000 0.850000
v 1.125000 1.520000 0.770000
v -0.125000 1.520000 0.770000
vn 0 -1 0
vt 0.300000 0.5
f 89/67/67 92/67/67 91/67/67
f 89/67/67 91/67/67 90/67/67
vn 0 1 0
vt 0.300000 0.5
f 93/68/68 94/68/68 95/68/68
f 93/68/68 95/68/68 96/68/68
vn 0 0 1
vt 0.300000 0.5
f 89/69/69 90/69/69 94/69/69
f 89/69/69 94/69/69 93/69/69
vn 1 0 0
vt 0.300000 0.5
f 90/70/70 91/70/70 95/70/70
f 90/70/70 95/70/70 94/70/70
vn 0 0 -1
vt 0.300000 0.5
f 91/71/71 92/71/71 96/71/71
f 91/71/71 96/71/71 95/71/71
vn -1 0 0
vt 0.300000 0.5
f 92/72/72 89/72/72 93/72/72
f 92/72/72 93/72/72 96/72/72
v -0.125000 1.640000 0.850000
v 1.125000 1.640000 0.850000
v 1.125000 1.640000 0.770000
v -0.125000 1.640000 0.770000
v -0.125000 1.720000 0.850000
v 1.125000 1.720000 0.850000
v 1.125000 1.720000 0.770000
v -0.125000 1.720000 0.770000
vn 0 -1 0
vt 0.300000 0.5
f 97/73/73 100/73/73 99/73/73
f 97/73/73 99/73/73 98/73/73
vn 0 1 0
vt 0.300000 0.5
f 101/74/74 102/74/74 103/74/74
f 101/74/74 103/74/74 104/74/74
vn 0 0 1
vt 0.300000 0.5
f 97/75/75 98/75/75 102/75/75
f 97/75/75 102/75/75 101/75/75
vn 1 0 0
vt 0.300000 0.5
f 98/76/76 99/76/76 103/76/76
f 98/76/76 103/76/76 102/76/76
vn 0 0 -1
vt 0.300000 0.5
f 99/77/77 100/77/77 104/77/77
f 99/77/77 104/77/77 103/77/77
vn -1 0 0
vt 0.300000 0.5
f 100/78/78 97/78/78 101/78/78
f 100/78/78 101/78/78 104/78/78
v -0.125000 0.640000 -0.770000
v 1.125000 0.640000 -0.770000
v 1.125000 0.640000 -0.850000
v -0.125000 0.640000 -0.850000
v -0.125000 0.720000 -0.770000
v 1.125000 0.720000 -0.770000
v 1.125000 0.720000 -0.850000
v -0.125000 0.720000 -0.850000
vn 0 -1 0
vt 0.300000 0.5
f 105/79/79 108/79/79 107/79/79
f 105/79/79 107/79/79 106/79/79
vn 0 1 0
vt 0.300000 0.5
f 109/80/80 110/80/80 111/80/80
f 109/80/80 111/80/80 112/80/80
vn 0 0 1
vt 0.300000 0.5
f 105/81/81 106/81/81 110/81/81
f 105/81/81 110/81/81 109/81/81
vn 1 0 0
vt 0.300000 0.5
f 106/82/82 107/82/82 111/82/82
f 106/82/82 111/82/82 110/82/82
vn 0 0 -1
vt 0.300000 0.5
f 107/83/83 108/83/83 112/83/83
f 107/83/83 112/83/83 111/83/83
vn -1 0 0
vt 0.300000 0.5
f 108/84/84 105/84/84 109/84/84
f 108/84/84 109/84/84 112/84/84
v -0.125000 0.840000 -0.770000
v 1.125000 0.840000 -0.770000
v 1.125000 0.840000 -0.850000
v -0.125000 0.840000 -0.850000
v -0.125000 0.920000 -0.770000
v 1.125000 0.920000 -0.770000
v 1.125000 0.920000 -0.850000
v -0.125000 0.920000 -0.850000
vn 0 -1 0
vt 0.300000 0.5
f 113/85/85 116/85/85 115/85/85
f 113/85/85 115/85/85 114/85/85
vn 0 1 0
vt 0.300000 0.5
f 117/86/86 118/86/86 119/86/86
f 117/86/86 119/86/86 120/86/86
vn 0 0 1
vt 0.300000 0.5
f 113/87/87 114/87/87 118/87/87
f 113/87/87 118/87/87 117/87/87
vn 1 0 0
vt 0.300000 0.5
f 114/88/88 115/88/88 119/88/88
f 114/88/88 119/88/88 118/88/88
vn 0 0 -1
vt 0.300000 0.5
f 115/89/89 116/89/89 120/89/89
f 115/89/89 120/89/89 119/89/89
vn -1 0 0
vt 0.300000 0.5
f 116/90/90 113/90/90 117/90/90
f 116/90/90 117/90/90 120/90/90
v -0.125000 1.040000 -0.770000
v 1.125000 1.040000 -0.770000
v 1.125000 1.040000 -0.850000
v -0.125000 1.040000 -0.850000
v -0.125000 1.120000 -0.770000
v 1.125000 1.120000 -0.770000
v 1.125000 1.120000 -0.850000
v -0.125000 1.120000 -0.850000
vn 0 -1 0
vt 0.300000 0.5
f 121/91/91 124/91/91 123/91/91
f 121/91/91 123/91/91 122/91/91
vn 0 1 0
vt 0.300000 0.5
f 125/92/92 126/92/92 127/92/92
f 125/92/92 127/92/92 128/92/92
vn 0 0 1
vt 0.300000 0.5
f 121/93/93 122/93/93 126/93/93
f 121/93/93 126/93/93 125/93/93
vn 1 0 0
vt 0.300000 0.5
f 122/94/94 123/94/94 127/94/94
f 122/94/94 127/94/94 126/94/94
vn 0 0 -1
vt 0.300000 0.5
f 123/95/95 124/95/95 128/95/95
f 123/95/95 128/95/95 127/95/95
vn -1 0 0
vt 0.300000 0.5
f 124/96/96 121/96/96 125/96/96
f 124/96/96 125/96/96 128/96/96
v -0.125000 1.240000 -0.770000
v 1.125000 1.240000 -0.770000
v 1.125000 1.240000 -0.850000
v -0.125000 1.240000 -0.850000
v -0.125000 1.320000 -0.770000
v 1.125000 1.320000 -0.770000
v 1.125000 1.320000 -0.850000
v -0.125000 1.320000 -0.850000
vn 0 -1 0
vt 0.300000 0.5
f 129/97/97 132/97/97 131/97/97
f 129/97/97 131/97/97 130/97/97
vn 0 1 0
vt 0.300000 0.5
f 133/98/98 134/98/98 135/98/98
f 133/98/98 135/98/98 136/98/98
vn 0 0 1
vt 0.300000 0.5
f 129/99/99 130/99/99 134/99/99
f 129/99/99 134/99/99 133/99/99
vn 1 0 0
vt 0.300000 0.5
f 130/100/100 131/100/100 135/100/100
f 130/100/100 135/100/100 134/100/100
vn 0 0 -1
vt 0.300000 0.5
f 131/101/101 132/101/101 136/101/101
f 131/101/101 136/101/101 135/101/101
vn -1 0 0
vt 0.300000 0.5
f 132/102/102 129/102/102 133/102/102
f 132/102/102 133/102/102 136/102/102
v -0.125000 1.440000 -0.770000
v 1.125000 1.440000 -0.770000
v 1.125000 1.440000 -0.850000
v -0.125000 1.440000 -0.850000
v -0.125000 1.520000 -0.770000
v 1.125000 1.520000 -0.770000
v 1.125000 1.520000 -0.850000
v -0.125000 1.520000 -0.850000
vn 0 -1 0
vt 0.300000 0.5
f 137/103/103 140/103/103 139/103/103
f 137/103/103 139/103/103 138/103/103
vn 0 1 0
vt 0.300000 0.5
f 141/104/104 142/104/104 143/104/104
f 141/104/104 143/104/104 144/104/104
vn 0 0 1
vt 0.300000 0.5
f 137/105/105 138/105/105 142/105/105
f 137/105/105 142/105/105 141/105/105
vn 1 0 0
vt 0.300000 0.5
f 138/106/106 139/106/106 143/106/106
f 138/106/106 143/106/106 142/106/106
vn 0 0 -1
vt 0.300000 0.5
f 139/107/107 140/107/107 144/107/107
f 139/107/107 144/107/107 143/107/107
vn -1 0 0
vt 0.300000 0.5
f 140/108/108 137/108/108 141/108/108
f 140/108/108 141/108/108 144/108/108
v -0.125000 1.640000 -0.770000
v 1.125000 1.640000 -0.770000
v 1.125000 1.640000 -0.850000
v -0.125000 1.640000 -0.850000
v -0.125000 1.720000 -0.770000
v 1.125000 1.720000 -0.770000
v 1.125000 1.720000 -0.850000
v -0.125000 1.720000 -0.850000
vn 0 -1 0
vt 0.300000 0.5
f 145/109/109 148/109/109 147/109/109
f 145/109/109 147/109/109 146/109/109
vn 0 1 0
vt 0.300000 0.5
f 149/110/110 150/110/110 151/110/110
f 149/110/110 151/110/110 152/110/110
vn 0 0 1
vt 0.300000 0.5
f 145/111/111 146/111/111 150/111/111
f 145/111/111 150/111/111 149/111/111
vn 1 0 0
vt 0.300000 0.5
f 146/112/112 147/112/112 151/112/112
f 146/112/112 151/112/112 150/112/112
vn 0 0 -1
vt 0.300000 0.5
f 147/113/113 148/113/113 152/113/113
f 147/113/113 152/113/113 151/113/113
vn -1 0 0
vt 0.300000 0.5
f 148/114/114 145/114/114 149/114/114
f 148/114/114 149/114/114 152/114/114
